#N canvas 1 536 1364 214 10;
#X obj 52 33 bng 15 250 50 0 empty empty empty 17 7 0 10 -262144 -1
-1;
#X obj 52 53 gg_source;
#X obj 52 75 gg_proxy;
#X obj 52 97 gg_sink;
#X connect 0 0 1 0;
#X connect 1 0 2 0;
#X connect 2 0 3 0;
